<svg width="1440" height="800" viewBox="0 0 1440 800" fill="none" xmlns="http://www.w3.org/2000/svg">
<g clip-path="url(#clip0_204_1176)">
<path d="M1188.44 163.301C1188.44 163.301 1190.19 174.835 1204.14 172.913C1212.79 171.721 1214.6 161.379 1214.6 161.379H1208.71C1208.71 161.379 1211.12 159.457 1207.63 153.69C1204.14 147.923 1198.91 146.001 1198.91 146.001L1200.65 153.69C1200.65 153.69 1195.42 155.612 1197.16 159.457C1198.91 163.301 1200.65 163.301 1200.65 163.301C1200.65 163.301 1197.16 165.224 1193.68 165.224C1190.19 165.224 1188.44 163.301 1188.44 163.301Z" fill="#AF7F97" stroke="#3E2847" stroke-width="1.03002" stroke-linejoin="bevel"/>
<path d="M1188.44 191.119L1193.67 192.138C1193.67 192.138 1191.93 199.827 1183.21 199.827C1174.49 199.827 1171 194.06 1171 194.06L1178.67 191.119C1178.67 191.119 1174.49 190.216 1174.49 182.527C1174.49 174.838 1177.98 170.993 1177.98 170.993L1188.44 191.119Z" fill="#AF7F97" stroke="#3E2847" stroke-width="1.03002" stroke-linejoin="bevel"/>
<path d="M1578.27 367.589L1386.02 310.332L1361.77 319.871L1340.98 379.045L1247.45 466.858L1195.5 468.775V482.169L1197.24 489.77L1181.65 520.304L1174.71 560.399L1164.32 659.646L1081.18 682.558H1059.95V867.724L1069.07 917.336L1037.89 926.897L1010.18 947.892V1011.93L1015.38 1018.52V1112.04L1022.29 1134.95L1024.03 1150.22L1020.58 1152.14V1260.94L1010.18 1271.45L1004.98 1283.83L1008.44 1302.93V1358.27L911.454 1476.62V1505.26L904.538 1514.8V1524.36L906.257 1530.09V1531.98L840.453 1551.08V1565.58L830.058 1604.53V1625.04L842.172 1661.79L840.453 1678.97V1761.06L859.502 1770.6L953.032 1774.41L1204.16 1752.73L1547.09 1726.69L1578.27 1729.33V367.589Z" fill="#C79FD7" stroke="#3E2847" stroke-width="1.03002" stroke-miterlimit="10"/>
<path d="M1573.06 121.351L1552.27 108.001H1540.78L1467.4 140.452L1439.69 442.048L1406.79 508.844L1410.25 524.111L1327.12 667.287L1247.44 680.638L1228.39 686.365L1221.47 728.355L1223.19 779.907L1197.23 821.897L1188.55 875.342L1162.58 900.171H1148.97L1133.14 907.793H1124.8L1117.55 913.521L1095.04 1022.33V1162.05L1091.56 1228.49L1088.1 1270.48L973.786 1339.19L927.031 1390.72L958.214 1486.18L956.475 1677.05L916.637 1772.51V1798.53L935.686 1804.96H1585L1573.06 121.351Z" fill="#C9DBF3" stroke="#3E2847" stroke-width="1.03002" stroke-miterlimit="10"/>
<path d="M1592.11 1291.46L1557.46 1266.65L1545.33 1245.66L1490.64 1203.67V1172.43L1484.7 1152.12L1500.3 1112.02V1042.34L1505.49 1029.94L1514.15 1016.56V1005.11L1503.75 987.924H1424.08L1405.03 968.846V741.58L1399.83 713.073V657.71L1391.17 655.794L1377.32 646.255H1362.11V598.537L1360.01 552.735L1339.22 545.091L1259.55 575.625V583.336L1250.79 600.563V690.161L1243.95 734.068V793.241L1212.77 814.236L1191.98 818.048L1179.85 829.504L1176.39 873.41V947.851L1157.34 1012.75V1024.21L1163.54 1042.34V1169.28L1168.18 1203.65V1209.37L1150.4 1262.82L1145.21 1293.35V1369.71L1141.75 1384.98H1129.62L1100.17 1396.43H1074.63L1070.73 1407.89V1438.12L1067.27 1472.79L1077.66 1484.25V1493.79L1072.47 1507.16V1646.5L928.704 1795.38L897.521 1797.3L851.166 1774.39L803.992 1804.92H784.942L776.287 1808.73L755.498 1837.37L753.759 1894.63L750.301 1909.9V1927.15L717.398 1951.89L711.722 1946.71H702.287L691.412 1959.53H682.537L672.363 1970.99L656.771 1972.9V1979.16L707.884 1982.44L937.36 2030.16L1259.51 1934.73L1525.68 1858.37C1525.68 1858.37 1598.98 1841.18 1600.7 1841.18C1602.42 1841.18 1592.05 1291.44 1592.05 1291.44L1592.11 1291.46Z" fill="#BDC2F7" stroke="#3E2847" stroke-width="1.03002" stroke-miterlimit="10"/>
<path d="M1284.04 721.924L1286.5 806.124" stroke="#3E2847" stroke-width="1.03002" stroke-miterlimit="10"/>
<path d="M1281.49 634.412L1283.55 704.711" stroke="#3E2847" stroke-width="1.03002" stroke-miterlimit="10"/>
<path d="M1296.09 621.339L1283.34 628.08L1263.01 618.607" stroke="#3E2847" stroke-width="1.03002" stroke-miterlimit="10"/>
<path d="M1329.37 603.725L1305.61 616.282" stroke="#3E2847" stroke-width="1.03002" stroke-miterlimit="10"/>
<path d="M1212.12 709.582L1212.88 732.692" stroke="#3E2847" stroke-width="1.03002" stroke-linejoin="bevel"/>
<path d="M1211.45 688.311L1211.81 699.744" stroke="#3E2847" stroke-width="1.03002" stroke-linejoin="bevel"/>
<path d="M1209.49 628.704L1211.27 683.582" stroke="#3E2847" stroke-width="1.03002" stroke-linejoin="bevel"/>
<path d="M1134.12 708.241L1114.61 718.551L1083.43 704.011" stroke="#3E2847" stroke-width="1.03002" stroke-miterlimit="10"/>
<path d="M1185.13 681.244L1148.71 700.499" stroke="#3E2847" stroke-width="1.03002" stroke-miterlimit="10"/>
<path d="M1188.38 687.67V730.982" stroke="#3E2847" stroke-width="1.03002" stroke-linejoin="bevel"/>
<path d="M1120.43 775.056V794.905" stroke="#3E2847" stroke-width="1.03002" stroke-linejoin="bevel"/>
<path d="M1120.43 737.243V769.077" stroke="#3E2847" stroke-width="1.03002" stroke-linejoin="bevel"/>
<path d="M1230.28 547.977V556.613L1228.92 561.195L1229.78 568.399" stroke="#3E2847" stroke-width="1.03002" stroke-miterlimit="10"/>
<path d="M1326.3 477.313L1325.7 516.307L1322.31 524.106" stroke="#3E2847" stroke-width="1.03002" stroke-miterlimit="10"/>
<path d="M1327 431.1L1326.42 469.08" stroke="#3E2847" stroke-width="1.03002" stroke-miterlimit="10"/>
<path d="M1274.55 499.049L1274.01 534.077" stroke="#3E2847" stroke-width="1.03002" stroke-miterlimit="10"/>
<path d="M1283.09 497.637L1280.89 493.341" stroke="#3E2847" stroke-width="1.03002" stroke-miterlimit="10"/>
<path d="M1236.5 499.83L1230.49 501.901" stroke="#3E2847" stroke-width="1.03002" stroke-linejoin="bevel"/>
<path d="M1239.27 498.883L1260.44 491.569L1273.06 495.226" stroke="#3E2847" stroke-width="1.03002" stroke-linejoin="bevel"/>
<path d="M1218.5 505.846L1227.83 502.63" stroke="#3E2847" stroke-width="1.03002" stroke-miterlimit="10"/>
<path d="M1218.5 508.519L1226.64 541.762" stroke="#3E2847" stroke-width="1.03002" stroke-miterlimit="10"/>
<path d="M1226.62 545.336V557.541" stroke="#3E2847" stroke-width="1.03002" stroke-miterlimit="10"/>
<path d="M1215.4 577.863L1211.46 588.636L1209.76 620.514" stroke="#3E2847" stroke-width="1.03002" stroke-linejoin="bevel"/>
<path d="M1226.63 561.277H1221.47L1216.77 574.121" stroke="#3E2847" stroke-width="1.03002" stroke-linejoin="bevel"/>
<path d="M1284.68 493.341L1287.42 497.637" stroke="#3E2847" stroke-width="1.03002" stroke-miterlimit="10"/>
<path d="M1288.94 493.341L1292.68 497.637" stroke="#3E2847" stroke-width="1.03002" stroke-miterlimit="10"/>
<path d="M1215.39 504.237L1199.96 491.569" stroke="#3E2847" stroke-width="1.03002" stroke-linejoin="bevel"/>
<path d="M1212.88 739.814L1197.93 775.063L1191.13 740.013" stroke="#3E2847" stroke-width="1.03002" stroke-linejoin="bevel"/>
<path d="M1233.11 570.393L1250.82 586.937" stroke="#3E2847" stroke-width="1.03002" stroke-linejoin="bevel"/>
<path d="M1273.05 537.697L1301.69 545.342" stroke="#3E2847" stroke-width="1.03002" stroke-linejoin="bevel"/>
<path d="M1305.61 543.701L1319.06 528.522" stroke="#3E2847" stroke-width="1.03002" stroke-linejoin="bevel"/>
<path d="M1443 660.688L1382.75 609.996" stroke="#3E2847" stroke-width="1.03002" stroke-linejoin="bevel"/>
<path d="M-403.119 803.786L-161.259 731.756L-130.756 743.756L-104.604 818.197L13.0571 928.667L78.4131 931.078V947.929L76.2253 957.49L95.8398 995.902L104.566 1046.34L117.642 1171.2L222.227 1200.02H248.932V1432.96L237.465 1495.37L276.694 1507.4L311.547 1533.81V1614.38L305.009 1622.66V1740.31L296.308 1769.14L294.121 1788.34L298.471 1790.75V1927.63L311.547 1940.85L318.085 1956.43L313.735 1980.46V2050.08L435.746 2198.96V2234.99L444.447 2246.99V2259.02L442.285 2266.22V2268.61L525.067 2292.63V2310.87L538.143 2359.87V2385.67L522.904 2431.9L525.067 2453.52V2556.78L501.102 2568.78L383.441 2573.58L67.5247 2546.3L-363.89 2513.55L-403.119 2516.87V803.786Z" fill="#C79FD7" stroke="#3E2847" stroke-width="1.03002" stroke-miterlimit="10"/>
<path d="M-396.562 494.016L-370.409 477.221H-355.95L-263.637 518.044L-228.784 897.455L-187.392 981.485L-191.742 1000.69L-87.1578 1180.81L13.0765 1197.6L37.0413 1204.81L45.7419 1257.63L43.5794 1322.48L76.2448 1375.31L87.1583 1442.54L119.824 1473.78H136.949L156.865 1483.37H167.351L176.479 1490.57L204.794 1627.45V1803.22L209.17 1886.81L213.52 1939.63L357.334 2026.07L416.151 2090.9L376.923 2210.98L379.111 2451.1L429.228 2571.19V2603.92L405.263 2612.01H-411.574L-396.562 494.016Z" fill="#C9DBF3" stroke="#3E2847" stroke-width="1.03002" stroke-miterlimit="10"/>
<mask id="mask0_204_1176" style="mask-type:alpha" maskUnits="userSpaceOnUse" x="-1533" y="-713" width="3350" height="3897">
<path d="M1816.26 -712.284H-1532.51V3183.48H1816.26V-712.284Z" fill="#FEDDE6"/>
</mask>
<g mask="url(#mask0_204_1176)">
<path d="M-148.862 561.419L92.9979 489.389L123.501 501.389L149.653 575.83L267.314 686.3L332.67 688.711V705.561L330.482 715.123L350.097 753.535L358.822 803.975L371.899 928.829L476.483 957.652H503.189V1190.59L491.722 1253.01L530.951 1265.03L565.804 1291.45V1372.01L559.266 1380.3V1497.95L550.565 1526.77L548.377 1545.97L552.728 1548.39V1685.27L565.804 1698.49L572.342 1714.06L567.992 1738.09V1807.71L690.003 1956.59V1992.62L698.704 2004.62V2016.65L696.541 2023.86V2026.24L779.324 2050.27V2068.5L792.4 2117.5V2143.3L777.161 2189.53L779.324 2211.15V2314.41L755.359 2326.41L637.698 2331.21L321.782 2303.94L-109.634 2271.18L-148.862 2274.5V561.419Z" fill="#C79FD7" stroke="#3E2847" stroke-width="1.03002" stroke-miterlimit="10"/>
<path d="M-18.9218 343.8L16.2834 162.464L38.9154 168.007L55.2355 253.118L71.606 262.236L46.6856 449.309L-1.31918 464.551L-18.9218 343.8Z" fill="#FFCBFF"/>
<path d="M-18.9218 343.8L16.2834 162.464L38.9154 168.007L55.2355 253.118L71.606 262.236L46.6856 449.309L-1.31918 464.551L-18.9218 343.8Z" fill="url(#paint0_linear_204_1176)"/>
<path d="M-18.9218 343.8L16.2834 162.464L38.9154 168.007L55.2355 253.118L71.606 262.236L46.6856 449.309L-1.31918 464.551L-18.9218 343.8Z" stroke="#3E2847" stroke-width="1.03002" stroke-miterlimit="10"/>
<path d="M-3.8358 447.935L164.646 201.276V355.119L184.764 417.449L66.5747 669.651L28.8548 697.365L-18.9238 600.365L-3.8358 447.935Z" fill="#FFCBFF"/>
<path d="M-3.8358 447.935L164.646 201.276V355.119L184.764 417.449L66.5747 669.651L28.8548 697.365L-18.9238 600.365L-3.8358 447.935Z" fill="url(#paint1_linear_204_1176)"/>
<path d="M-3.8358 447.935L164.646 201.276V355.119L184.764 417.449L66.5747 669.651L28.8548 697.365L-18.9238 600.365L-3.8358 447.935Z" stroke="#3E2847" stroke-width="1.03002" stroke-miterlimit="10"/>
<path d="M16.0573 674.307L64.6658 619.626L154.615 608.679L140.03 709.864C140.03 709.864 67.105 808.306 64.6658 813.766C62.2266 819.225 8.76498 737.191 8.76498 737.191L16.0573 674.307Z" fill="#FFCBFF"/>
<path d="M16.0573 674.307L64.6658 619.626L154.615 608.679L140.03 709.864C140.03 709.864 67.105 808.306 64.6658 813.766C62.2266 819.225 8.76498 737.191 8.76498 737.191L16.0573 674.307Z" fill="url(#paint2_linear_204_1176)"/>
<path d="M16.0573 674.307L64.6658 619.626L154.615 608.679L140.03 709.864C140.03 709.864 67.105 808.306 64.6658 813.766C62.2266 819.225 8.76498 737.191 8.76498 737.191L16.0573 674.307Z" stroke="#3E2847" stroke-width="1.03002" stroke-miterlimit="10"/>
<path d="M-142.305 251.648L-116.152 234.854H-101.693L-9.37988 275.677L25.4733 655.088L66.8648 739.118L62.5145 758.324L167.099 938.44L267.333 955.235L291.298 962.441L299.999 1015.26L297.836 1080.12L330.502 1132.94L341.415 1200.18L374.081 1231.41H391.206L411.122 1241H421.608L430.736 1248.21L459.051 1385.09V1560.85L463.426 1644.44L467.777 1697.26L611.59 1783.7L670.408 1848.53L631.18 1968.61L633.367 2208.73L683.484 2328.82V2361.55L659.52 2369.64H-157.317L-142.305 251.648Z" fill="#C9DBF3" stroke="#3E2847" stroke-width="1.03002" stroke-miterlimit="10"/>
<path d="M-166.258 1723.65L-122.679 1692.45L-107.415 1666.04L-38.6139 1613.21V1573.91L-31.145 1548.36L-50.7595 1497.92V1410.26L-57.2976 1394.66L-68.1863 1377.83V1363.42L-55.1099 1341.81H45.1245L69.0892 1317.8V1031.9L75.6273 996.04V926.393L86.5157 923.982L103.942 911.982H123.079V851.952L125.719 794.334L151.872 784.717L252.106 823.129V832.829L263.12 854.502V967.217L271.72 1022.45V1096.89L310.949 1123.3L337.102 1128.1L352.366 1142.51L356.716 1197.75V1291.39L380.681 1373.04V1387.45L372.885 1410.26V1569.95L367.051 1613.19V1620.39L389.407 1687.63L395.945 1726.04V1822.1L400.295 1841.3H415.559L452.6 1855.71H484.737L489.641 1870.13V1908.15L493.991 1951.77L480.915 1966.18V1978.18L487.453 1995.01V2170.3L668.307 2357.6L707.536 2360.01L765.851 2331.18L825.197 2369.6H849.162L860.05 2374.39L886.203 2410.42L888.39 2482.45L892.741 2501.66V2523.36L934.132 2554.48L941.274 2547.97H953.143L966.823 2564.1H977.988L990.788 2578.51L1010.4 2580.92V2588.79L946.102 2592.92L657.419 2652.95L252.156 2532.89L-82.6956 2436.83C-82.6956 2436.83 -174.908 2415.21 -177.071 2415.21C-179.234 2415.21 -166.182 1723.63 -166.182 1723.63L-166.258 1723.65Z" fill="#BDC2F7" stroke="#3E2847" stroke-width="1.03002" stroke-miterlimit="10"/>
<path d="M169.724 425.753L124.46 409.124L26.3885 533.423L169.724 425.753Z" fill="#C5F7E3"/>
<path d="M169.724 402.29L139.548 386.964L157.151 261.251L154.636 359.36L169.724 402.29Z" fill="#C5F7E3"/>
<path d="M139.523 627.287L129.465 693.331H77.9393V635.324L139.523 627.287Z" fill="#C5F7E3"/>
<path d="M61.5627 267.776L31.3868 284.405L23.8428 375.613L61.5627 267.776Z" fill="#C5F7E3"/>
<path d="M129.467 708.432H64.79V635.321" stroke="#3E2847" stroke-width="1.03002" stroke-miterlimit="10"/>
<path d="M33.8808 195.7L23.8222 273.301L48.9688 259.443" fill="#FFCBFF"/>
<path d="M33.8808 195.7L23.8222 273.301L48.9688 259.443" stroke="#3E2847" stroke-width="1.03002" stroke-miterlimit="10"/>
<path d="M21.3081 281.622L13.7641 398.023" stroke="#3E2847" stroke-width="1.03002" stroke-miterlimit="10"/>
<path d="M157.119 226.201L124.429 389.716L33.9008 497.803" stroke="#3E2847" stroke-width="1.03002" stroke-miterlimit="10"/>
<path d="M177.229 417.422L129.451 395.25" stroke="#3E2847" stroke-width="1.03002" stroke-miterlimit="10"/>
<path d="M54.031 289.306L61.5498 267.771L46.487 276.086" stroke="#3E2847" stroke-width="1.03002" stroke-linejoin="bevel"/>
<path d="M42.0459 278.541L31.3838 284.416L29.045 312.879" stroke="#3E2847" stroke-width="1.03002" stroke-linejoin="bevel"/>
<path d="M28.5586 318.462L28.0555 324.67" stroke="#3E2847" stroke-width="1.03002" stroke-linejoin="bevel"/>
<path d="M27.6885 329.31L27.4874 331.748" stroke="#3E2847" stroke-width="1.03002" stroke-linejoin="bevel"/>
<path d="M26.8133 339.824L23.8461 375.853L32.0439 352.213" stroke="#3E2847" stroke-width="1.03002" stroke-linejoin="bevel"/>
<path d="M34.3111 345.682L41.0757 326.31" stroke="#3E2847" stroke-width="1.03002" stroke-linejoin="bevel"/>
<path d="M42.0425 323.618L44.8589 315.581" stroke="#3E2847" stroke-width="1.03002" stroke-linejoin="bevel"/>
<path d="M45.7953 312.875L47.2285 308.801" stroke="#3E2847" stroke-width="1.03002" stroke-linejoin="bevel"/>
<path d="M165.834 391.288L169.682 402.263L150.118 392.314" stroke="#3E2847" stroke-width="1.03002" stroke-linejoin="bevel"/>
<path d="M146.87 390.681L139.527 386.939L142.318 367.013" stroke="#3E2847" stroke-width="1.03002" stroke-linejoin="bevel"/>
<path d="M142.846 363.062L145.034 347.486" stroke="#3E2847" stroke-width="1.03002" stroke-linejoin="bevel"/>
<path d="M145.525 344.136L146.531 336.875" stroke="#3E2847" stroke-width="1.03002" stroke-linejoin="bevel"/>
<path d="M146.925 334.11L147.528 329.759" stroke="#3E2847" stroke-width="1.03002" stroke-linejoin="bevel"/>
<path d="M149.122 318.472L157.119 261.241L155.535 323.626" stroke="#3E2847" stroke-width="1.03002" stroke-linejoin="bevel"/>
<path d="M155.381 329.31L155.004 344.109" stroke="#3E2847" stroke-width="1.03002" stroke-linejoin="bevel"/>
<path d="M154.855 349.271L154.578 359.36L163.606 384.995" stroke="#3E2847" stroke-width="1.03002" stroke-linejoin="bevel"/>
<path d="M152.154 419.289L169.682 425.747L153.336 438.024" stroke="#3E2847" stroke-width="1.03002" stroke-linejoin="bevel"/>
<path d="M150.632 440.074L130.591 455.123" stroke="#3E2847" stroke-width="1.03002" stroke-linejoin="bevel"/>
<path d="M126.866 457.929L114.167 467.462" stroke="#3E2847" stroke-width="1.03002" stroke-linejoin="bevel"/>
<path d="M111.413 469.534L104.774 474.495" stroke="#3E2847" stroke-width="1.03002" stroke-linejoin="bevel"/>
<path d="M101.825 476.732L98.8829 478.95" stroke="#3E2847" stroke-width="1.03002" stroke-linejoin="bevel"/>
<path d="M97.0674 480.332L95.131 481.773" stroke="#3E2847" stroke-width="1.03002" stroke-linejoin="bevel"/>
<path d="M91.832 484.235L26.3505 533.428L90.8264 451.726" stroke="#3E2847" stroke-width="1.03002" stroke-linejoin="bevel"/>
<path d="M93.154 448.777L102.936 436.389" stroke="#3E2847" stroke-width="1.03002" stroke-linejoin="bevel"/>
<path d="M105.514 433.112L109.009 428.678" stroke="#3E2847" stroke-width="1.03002" stroke-linejoin="bevel"/>
<path d="M111.422 425.616L112.981 423.62" stroke="#3E2847" stroke-width="1.03002" stroke-linejoin="bevel"/>
<path d="M114.911 421.17L124.416 409.114L150.116 418.565" stroke="#3E2847" stroke-width="1.03002" stroke-linejoin="bevel"/>
<path d="M90.2983 693.346H77.9264V662.223" stroke="#3E2847" stroke-width="1.03002" stroke-linejoin="bevel"/>
<path d="M77.9248 656.041V646.646" stroke="#3E2847" stroke-width="1.03002" stroke-linejoin="bevel"/>
<path d="M77.921 640.801V635.314L110.963 630.99" stroke="#3E2847" stroke-width="1.03002" stroke-linejoin="bevel"/>
<path d="M114.721 630.527L118.92 629.973" stroke="#3E2847" stroke-width="1.03002" stroke-linejoin="bevel"/>
<path d="M121.618 629.616L124.962 629.2" stroke="#3E2847" stroke-width="1.03002" stroke-linejoin="bevel"/>
<path d="M128.385 628.76L129.467 628.623" stroke="#3E2847" stroke-width="1.03002" stroke-linejoin="bevel"/>
<path d="M139.517 627.292L130.741 684.994" stroke="#3E2847" stroke-width="1.03002" stroke-linejoin="bevel"/>
<path d="M130.324 687.553L129.444 693.317H94.44" stroke="#3E2847" stroke-width="1.03002" stroke-linejoin="bevel"/>
<path d="M288.913 788.348V799.212L290.624 804.976L289.542 814.039" stroke="#3E2847" stroke-width="1.03002" stroke-miterlimit="10"/>
<path d="M168.12 699.453L168.874 748.508L173.149 758.319" stroke="#3E2847" stroke-width="1.03002" stroke-miterlimit="10"/>
<path d="M167.253 641.315L167.982 689.095" stroke="#3E2847" stroke-width="1.03002" stroke-miterlimit="10"/>
<path d="M233.226 726.796L233.905 770.862" stroke="#3E2847" stroke-width="1.03002" stroke-miterlimit="10"/>
<path d="M222.482 725.016L225.248 719.611" stroke="#3E2847" stroke-width="1.03002" stroke-miterlimit="10"/>
<path d="M281.091 727.769L288.66 730.374" stroke="#3E2847" stroke-width="1.03002" stroke-linejoin="bevel"/>
<path d="M277.606 726.582L250.976 717.381L235.109 721.981" stroke="#3E2847" stroke-width="1.03002" stroke-linejoin="bevel"/>
<path d="M303.738 735.341L291.995 731.295" stroke="#3E2847" stroke-width="1.03002" stroke-miterlimit="10"/>
<path d="M303.738 738.711L293.504 780.532" stroke="#3E2847" stroke-width="1.03002" stroke-miterlimit="10"/>
<path d="M293.518 785.03V800.384" stroke="#3E2847" stroke-width="1.03002" stroke-miterlimit="10"/>
<path d="M220.477 719.611L217.031 725.016" stroke="#3E2847" stroke-width="1.03002" stroke-miterlimit="10"/>
<path d="M215.126 719.611L210.424 725.016" stroke="#3E2847" stroke-width="1.03002" stroke-miterlimit="10"/>
<path d="M307.648 733.317L327.061 717.381" stroke="#3E2847" stroke-width="1.03002" stroke-linejoin="bevel"/>
<path d="M235.12 775.41L199.085 785.027" stroke="#3E2847" stroke-width="1.03002" stroke-linejoin="bevel"/>
<path d="M194.161 782.967L177.238 763.872" stroke="#3E2847" stroke-width="1.03002" stroke-linejoin="bevel"/>
<path d="M-8.7938 736.603L0.761719 829.557" stroke="#3E2847" stroke-width="1.03002" stroke-miterlimit="10"/>
</g>
<path d="M293.441 579.119L298.674 580.138C298.674 580.138 296.93 587.827 288.209 587.827C279.488 587.827 276 582.06 276 582.06L283.674 579.119C283.674 579.119 279.488 578.216 279.488 570.527C279.488 562.838 282.977 558.993 282.977 558.993L293.441 579.119Z" fill="#AF7F97" stroke="#3E2847" stroke-width="1.03002" stroke-linejoin="bevel"/>
<path d="M1205.21 577.704C1204.13 577.684 1203.02 577.704 1201.93 577.801C1198.2 578.053 1188.82 578.694 1180.57 579.413C1179.07 579.413 1177.62 579.568 1176.22 579.821C1176.18 579.821 1176.14 579.821 1176.1 579.821C1173.92 580.229 1171.89 580.87 1170.06 581.744C1166.49 583.453 1162.62 584.346 1158.68 584.191C1157.49 584.133 1156.27 584.113 1155.05 584.113C1155.03 584.113 1154.99 584.113 1154.97 584.113C1150.97 584.113 1147.04 583.356 1143.41 581.705C1138.11 579.277 1129.45 577.684 1119.68 577.684C1109.91 577.684 1101.25 579.258 1095.94 581.705C1092.31 583.375 1088.39 584.133 1084.39 584.113C1084.37 584.113 1084.33 584.113 1084.31 584.113C1080.21 584.113 1076.33 584.385 1072.79 584.89C1067.62 585.628 1062.42 584.696 1057.72 582.404C1051.7 579.471 1043.64 577.684 1034.76 577.684C1030.62 577.684 1026.66 578.073 1023.01 578.792C1016.12 580.132 1008.93 578.442 1003.26 574.305C997.917 570.401 990.944 568.051 983.311 568.051C976.552 568.051 970.317 569.896 965.267 573.023C959.149 576.81 951.535 577.568 944.698 575.334C940.037 573.819 934.54 572.945 928.655 572.945C921.43 572.945 914.787 574.266 909.543 576.48C909.485 576.48 909.427 576.48 909.349 576.48C906.144 576.48 903.153 576.927 900.551 577.704C900.551 577.704 869.144 577.704 853.082 587.337C837.019 596.971 849.857 596.991 849.857 596.991C849.857 596.991 859.511 590.562 875.573 590.562C891.636 590.562 898.084 592.892 898.084 592.892C898.472 593.067 898.88 593.203 899.288 593.359C902.94 600.059 914.69 604.954 928.636 604.954C929.995 604.954 931.316 604.896 932.617 604.798C937.24 610.548 948.117 614.588 960.78 614.588C962.256 614.588 963.694 614.51 965.112 614.413C970.2 617.598 976.474 619.482 983.272 619.482C990.07 619.482 996.401 617.579 1001.47 614.393C1007.18 610.8 1014.04 609.829 1020.58 611.422C1024.88 612.47 1029.65 613.053 1034.7 613.053C1044.8 613.053 1053.85 610.722 1060.03 607.032C1065.04 604.041 1070.73 602.545 1076.54 603.07C1078.99 603.284 1081.57 603.419 1084.23 603.419C1089.11 603.419 1093.69 603.031 1097.71 602.332C1103.27 601.38 1109.05 602.274 1113.95 605.07C1114.47 605.362 1115 605.653 1115.56 605.906C1119.35 607.654 1122.49 610.392 1125.06 613.713C1128.42 618.064 1134.79 620.997 1142.09 620.997C1146.5 620.997 1150.56 619.929 1153.82 618.142C1158.48 615.578 1163.75 614.102 1169.05 614.51C1169.71 614.549 1170.37 614.588 1171.03 614.588C1176.99 614.588 1182.33 612.626 1185.93 609.557C1187.68 608.042 1189.58 606.741 1191.66 605.692C1193.85 604.585 1195.74 603.167 1197.17 601.516C1197.17 601.516 1208.19 587.357 1221.9 587.357C1235.61 587.357 1226.42 578.189 1205.12 577.723L1205.21 577.704Z" fill="#F9FAFB" stroke="#3E2847" stroke-miterlimit="10"/>
<path d="M916.278 594.501C916.278 594.501 919.561 584.11 935.643 584.11C951.725 584.11 958.154 596.968 958.154 596.968" stroke="#3E2847" stroke-miterlimit="10"/>
<path d="M951.66 590.074C951.66 590.074 953.933 582.868 965.082 582.868C976.23 582.868 980.678 591.783 980.678 591.783" stroke="#3E2847" stroke-miterlimit="10"/>
<path d="M1102.75 599.109C1102.75 599.109 1104.52 593.496 1113.18 593.496C1121.85 593.496 1128.53 596.973 1128.53 596.973" stroke="#3E2847" stroke-miterlimit="10"/>
<path d="M1122.13 603.403C1122.13 603.403 1125.36 596.975 1134.99 593.75C1144.62 590.526 1154.28 593.75 1154.28 593.75" stroke="#3E2847" stroke-miterlimit="10"/>
<path d="M1119.82 517.735C1121.71 517.546 1123.61 517.488 1125.52 517.518C1128.91 517.516 1134.94 517.562 1141.25 517.634C1143.53 517.661 1145.83 517.467 1148.03 516.821C1150.67 516.036 1153.48 515.503 1156.44 515.31C1162.5 514.916 1168.18 515.948 1172.93 518.047C1178.09 520.317 1183.83 520.995 1189.24 519.438C1191.22 518.872 1193.32 518.495 1195.52 518.352C1201.89 517.938 1207.73 519.55 1211.95 522.472C1215.52 524.932 1219.75 526.256 1224.07 526.434C1235.77 526.878 1251.09 528.574 1261.42 533.901C1280.18 543.562 1265.75 544.501 1265.75 544.501C1265.75 544.501 1254.44 537.989 1236.41 539.162C1231.12 539.506 1226.79 540.006 1223.28 540.563C1219.25 541.197 1215.48 542.843 1212.25 545.374C1208.5 548.289 1203.38 550.264 1197.62 550.638C1195.2 550.796 1192.85 550.664 1190.66 550.259C1185.05 549.266 1179.19 549.669 1174.23 552.444C1169.96 554.823 1164.78 556.386 1159.14 556.753C1147.06 557.538 1136.43 552.647 1131.89 545.083C1130.61 542.976 1128.88 541.185 1127 539.599C1121.81 535.229 1112.66 529.082 1102.65 529.733C1087.85 530.695 1096.63 520.053 1119.83 517.801L1119.82 517.735Z" fill="#F9FAFB" stroke="#3E2847" stroke-miterlimit="10"/>
<path d="M1178.43 539.225C1178.43 539.225 1172.52 530.501 1160.16 528.547C1147.79 526.593 1141.27 535.708 1141.27 535.708" stroke="#3E2847" stroke-miterlimit="10"/>
<path d="M1170.74 532.484C1170.74 532.484 1172.62 528.684 1182.31 528.207C1192 527.731 1196.28 535.334 1196.28 535.334" stroke="#3E2847" stroke-miterlimit="10"/>
<path d="M266.734 300.735C264.841 300.546 262.94 300.488 261.034 300.518C257.64 300.516 251.617 300.562 245.307 300.634C243.029 300.661 240.721 300.467 238.53 299.821C235.888 299.036 233.076 298.503 230.112 298.31C224.051 297.916 218.379 298.948 213.623 301.047C208.462 303.317 202.726 303.995 197.31 302.438C195.333 301.872 193.234 301.495 191.032 301.352C184.666 300.938 178.826 302.55 174.607 305.472C171.032 307.932 166.808 309.256 162.484 309.434C150.786 309.878 135.46 311.574 125.131 316.901C106.375 326.562 120.807 327.501 120.807 327.501C120.807 327.501 132.111 320.989 150.14 322.162C155.438 322.506 159.762 323.006 163.273 323.563C167.303 324.197 171.072 325.843 174.3 328.374C178.052 331.289 183.177 333.264 188.933 333.638C191.353 333.796 193.704 333.664 195.897 333.259C201.501 332.266 207.364 332.669 212.328 335.444C216.596 337.823 221.77 339.386 227.417 339.753C239.494 340.538 250.124 335.647 254.666 328.083C255.941 325.976 257.678 324.185 259.554 322.599C264.742 318.229 273.899 312.082 283.906 312.733C298.708 313.695 289.921 303.053 266.729 300.801L266.734 300.735Z" fill="#F9FAFB" stroke="#3E2847" stroke-miterlimit="10"/>
<path d="M208.124 322.225C208.124 322.225 214.033 313.501 226.398 311.547C238.763 309.593 245.286 318.708 245.286 318.708" stroke="#3E2847" stroke-miterlimit="10"/>
<path d="M215.811 315.484C215.811 315.484 213.934 311.684 204.245 311.207C194.555 310.731 190.274 318.334 190.274 318.334" stroke="#3E2847" stroke-miterlimit="10"/>
</g>
<defs>
<linearGradient id="paint0_linear_204_1176" x1="34.3183" y1="225.708" x2="-58.5931" y2="454.308" gradientUnits="userSpaceOnUse">
<stop stop-color="#FFCBFF"/>
<stop offset="0.991395" stop-color="#EFB2EF"/>
</linearGradient>
<linearGradient id="paint1_linear_204_1176" x1="100.866" y1="305.136" x2="-18.3973" y2="707.178" gradientUnits="userSpaceOnUse">
<stop stop-color="#FFCBFF"/>
<stop offset="0.991395" stop-color="#EFB2EF"/>
</linearGradient>
<linearGradient id="paint2_linear_204_1176" x1="94.5407" y1="651.67" x2="64.3781" y2="827.561" gradientUnits="userSpaceOnUse">
<stop stop-color="#FFCBFF"/>
<stop offset="0.991395" stop-color="#EFB2EF"/>
</linearGradient>
<clipPath id="clip0_204_1176">
<rect width="1440" height="800" fill="white"/>
</clipPath>
</defs>
</svg>
