<svg width="26" height="27" viewBox="0 0 26 27" fill="none" xmlns="http://www.w3.org/2000/svg">
<path fill-rule="evenodd" clip-rule="evenodd" d="M24.8412 0.722214L25.7257 5.72613L25.7585 5.90737L25.6281 6.04057C23.5478 8.15492 21.7043 10.2809 20.0998 12.418L20.0947 12.4223C18.8803 13.987 17.7363 15.6084 16.6623 17.2831L15.6103 18.978C14.2398 21.2613 12.9039 23.7331 11.6019 26.3891L11.4844 26.629L11.2453 26.5892L10.1682 26.5047L10.1901 26.2244C9.65279 25.1287 9.0695 24.0717 8.44023 23.0545L7.78628 22.0394C6.8975 20.7062 5.84852 19.3788 4.63973 18.0619L4.63542 18.0569C3.45646 16.7231 2.01754 15.3296 0.317319 13.8794L-0.000107598 13.6101L0.312882 13.336L2.77254 11.1684L3.01167 11.387C4.35509 12.6206 5.5446 13.8431 6.5775 15.0541C7.6352 16.2419 8.53968 17.4075 9.29152 18.551L9.82688 19.3993C10.3303 20.2402 10.7414 21.0564 11.0623 21.8447L11.1128 21.9803C11.5541 20.5698 12.0968 19.1298 12.7465 17.6627L13.403 16.2448C14.0874 14.8232 14.859 13.387 15.7199 11.9385L16.6089 10.4941C17.5223 9.05348 18.5136 7.62479 19.5823 6.21097C20.9938 4.27299 22.5414 2.38284 24.2206 0.541929L24.7144 -5.37229e-05L24.8412 0.722214ZM9.51618 19.5842C9.61354 19.7468 9.70272 19.911 9.79303 20.0714C9.54978 19.6393 9.28602 19.1964 8.99158 18.7485L9.51618 19.5842ZM20.4266 11.3975C20.2176 11.6656 20.0126 11.9341 19.811 12.2026C20.2149 11.6647 20.6344 11.1283 21.068 10.592L20.4266 11.3975Z" fill="#006A40"/>
</svg>
